# xmcd
#
# Track frame offsets:
#	150
#	15400
#	33367
#	56352
#	75807
#	95430
#	109012
#	122480
#	137067
#	153982
#	176705
#
# Disc length: 2574 seconds
#
# Revision: 0
# Processed by: cddbd v1.5.1PL2 Copyright (c) Steve Scherf et al.
# Submitted via: dBpowerAMP V4.0
#
DISCID=760a0c0b
DTITLE=Bill Colgate - when dinosaurs ruled the earth
DYEAR=1996
DGENRE=Blues
TTITLE0=I Got the Rhythm
TTITLE1=Stuck Here in the Blues
TTITLE2=Hockey Night
TTITLE3=Hate That Train
TTITLE4=I Will Still Remember You
TTITLE5=Freight Train Roll
TTITLE6=Fool Around
TTITLE7=Please Phone Home
TTITLE8=Crushed
TTITLE9=Lake of Bays
TTITLE10=Let it Be There
EXTD=
EXTT0=
EXTT1=
EXTT2=
EXTT3=
EXTT4=
EXTT5=
EXTT6=
EXTT7=
EXTT8=
EXTT9=
EXTT10=
PLAYORDER=
